<svg width="592" height="177" viewBox="0 0 592 177" fill="none" xmlns="http://www.w3.org/2000/svg">
<rect width="592" height="177" rx="32" fill="black"/>
<path d="M198.38 132L193.83 118.77H175L170.52 132H161L179.34 81.81H189.56L207.9 132H198.38ZM187.18 98.19C186.993 97.5367 186.713 96.65 186.34 95.53C185.967 94.41 185.593 93.2667 185.22 92.1C184.893 90.8867 184.637 89.8833 184.45 89.09C184.217 90.0233 183.913 91.0967 183.54 92.31C183.213 93.5233 182.887 94.6667 182.56 95.74C182.28 96.8133 182.047 97.63 181.86 98.19L177.45 111.07H191.52L187.18 98.19ZM233.583 93.36C238.016 93.36 241.586 95.0167 244.293 98.33C247 101.597 248.353 106.473 248.353 112.96C248.353 117.253 247.723 120.87 246.463 123.81C245.203 126.75 243.453 128.967 241.213 130.46C238.973 131.953 236.36 132.7 233.373 132.7C231.553 132.7 229.943 132.467 228.543 132C227.143 131.487 225.953 130.857 224.973 130.11C223.993 129.317 223.153 128.477 222.453 127.59H221.893C222.08 128.43 222.22 129.387 222.313 130.46C222.406 131.487 222.453 132.467 222.453 133.4V148.8H213.633V94.06H220.773L222.033 99.1H222.453C223.153 98.0267 223.993 97.07 224.973 96.23C226 95.3433 227.213 94.6433 228.613 94.13C230.06 93.6167 231.716 93.36 233.583 93.36ZM231.063 100.5C229.01 100.5 227.353 100.92 226.093 101.76C224.833 102.553 223.923 103.79 223.363 105.47C222.803 107.15 222.5 109.25 222.453 111.77V112.89C222.453 115.597 222.71 117.883 223.223 119.75C223.783 121.617 224.693 123.04 225.953 124.02C227.26 125 229.01 125.49 231.203 125.49C233.07 125.49 234.586 124.977 235.753 123.95C236.966 122.923 237.853 121.477 238.413 119.61C239.02 117.697 239.323 115.433 239.323 112.82C239.323 108.9 238.646 105.867 237.293 103.72C235.986 101.573 233.91 100.5 231.063 100.5ZM277.401 93.36C281.835 93.36 285.405 95.0167 288.111 98.33C290.818 101.597 292.171 106.473 292.171 112.96C292.171 117.253 291.541 120.87 290.281 123.81C289.021 126.75 287.271 128.967 285.031 130.46C282.791 131.953 280.178 132.7 277.191 132.7C275.371 132.7 273.761 132.467 272.361 132C270.961 131.487 269.771 130.857 268.791 130.11C267.811 129.317 266.971 128.477 266.271 127.59H265.711C265.898 128.43 266.038 129.387 266.131 130.46C266.225 131.487 266.271 132.467 266.271 133.4V148.8H257.451V94.06H264.591L265.851 99.1H266.271C266.971 98.0267 267.811 97.07 268.791 96.23C269.818 95.3433 271.031 94.6433 272.431 94.13C273.878 93.6167 275.535 93.36 277.401 93.36ZM274.881 100.5C272.828 100.5 271.171 100.92 269.911 101.76C268.651 102.553 267.741 103.79 267.181 105.47C266.621 107.15 266.318 109.25 266.271 111.77V112.89C266.271 115.597 266.528 117.883 267.041 119.75C267.601 121.617 268.511 123.04 269.771 124.02C271.078 125 272.828 125.49 275.021 125.49C276.888 125.49 278.405 124.977 279.571 123.95C280.785 122.923 281.671 121.477 282.231 119.61C282.838 117.697 283.141 115.433 283.141 112.82C283.141 108.9 282.465 105.867 281.111 103.72C279.805 101.573 277.728 100.5 274.881 100.5ZM349.343 118.35C349.343 121.29 348.62 123.833 347.173 125.98C345.727 128.127 343.627 129.783 340.873 130.95C338.167 132.117 334.923 132.7 331.143 132.7C329.323 132.7 327.573 132.583 325.893 132.35C324.26 132.163 322.697 131.86 321.203 131.44C319.757 131.02 318.403 130.507 317.143 129.9V121.5C319.243 122.433 321.553 123.297 324.073 124.09C326.593 124.837 329.16 125.21 331.773 125.21C333.78 125.21 335.413 124.953 336.673 124.44C337.98 123.88 338.937 123.133 339.543 122.2C340.15 121.22 340.453 120.1 340.453 118.84C340.453 117.44 340.057 116.25 339.263 115.27C338.47 114.29 337.303 113.38 335.763 112.54C334.223 111.7 332.31 110.813 330.023 109.88C328.483 109.227 326.967 108.503 325.473 107.71C324.027 106.87 322.72 105.867 321.553 104.7C320.387 103.533 319.453 102.157 318.753 100.57C318.053 98.9833 317.703 97.1167 317.703 94.97C317.703 92.1233 318.38 89.6733 319.733 87.62C321.133 85.5667 323.07 84.0033 325.543 82.93C328.063 81.8567 330.98 81.32 334.293 81.32C336.953 81.32 339.45 81.6 341.783 82.16C344.117 82.72 346.427 83.5133 348.713 84.54L345.843 91.75C343.79 90.8633 341.807 90.1633 339.893 89.65C337.98 89.1367 336.02 88.88 334.013 88.88C332.427 88.88 331.073 89.1367 329.953 89.65C328.833 90.1167 327.993 90.7933 327.433 91.68C326.873 92.5667 326.593 93.5933 326.593 94.76C326.593 96.1133 326.943 97.2567 327.643 98.19C328.343 99.1233 329.417 100.01 330.863 100.85C332.357 101.643 334.27 102.553 336.603 103.58C339.31 104.747 341.597 105.96 343.463 107.22C345.33 108.48 346.777 109.997 347.803 111.77C348.83 113.543 349.343 115.737 349.343 118.35ZM372.64 125.63C373.76 125.63 374.833 125.537 375.86 125.35C376.886 125.117 377.843 124.86 378.73 124.58V131.16C377.796 131.58 376.583 131.93 375.09 132.21C373.596 132.537 372.033 132.7 370.4 132.7C368.253 132.7 366.293 132.35 364.52 131.65C362.793 130.903 361.393 129.643 360.32 127.87C359.293 126.097 358.78 123.623 358.78 120.45V100.71H353.67V96.86L359.27 93.78L362.07 85.73H367.6V94.06H378.38V100.71H367.6V120.38C367.6 122.153 368.066 123.483 369 124.37C369.933 125.21 371.146 125.63 372.64 125.63ZM420.257 112.96C420.257 116.133 419.837 118.933 418.997 121.36C418.157 123.787 416.944 125.863 415.357 127.59C413.817 129.27 411.904 130.553 409.617 131.44C407.377 132.28 404.88 132.7 402.127 132.7C399.514 132.7 397.11 132.28 394.917 131.44C392.724 130.553 390.81 129.27 389.177 127.59C387.59 125.863 386.354 123.787 385.467 121.36C384.58 118.933 384.137 116.133 384.137 112.96C384.137 108.76 384.86 105.213 386.307 102.32C387.754 99.38 389.83 97.1633 392.537 95.67C395.29 94.13 398.534 93.36 402.267 93.36C405.814 93.36 408.917 94.13 411.577 95.67C414.284 97.1633 416.407 99.38 417.947 102.32C419.487 105.213 420.257 108.76 420.257 112.96ZM393.167 112.96C393.167 115.62 393.47 117.907 394.077 119.82C394.73 121.687 395.71 123.11 397.017 124.09C398.37 125.07 400.097 125.56 402.197 125.56C404.344 125.56 406.07 125.07 407.377 124.09C408.73 123.11 409.71 121.687 410.317 119.82C410.924 117.907 411.227 115.62 411.227 112.96C411.227 110.253 410.9 107.99 410.247 106.17C409.64 104.303 408.66 102.903 407.307 101.97C406 100.99 404.297 100.5 402.197 100.5C399.024 100.5 396.714 101.573 395.267 103.72C393.867 105.867 393.167 108.947 393.167 112.96ZM449.255 93.36C449.815 93.36 450.468 93.3833 451.215 93.43C451.962 93.4767 452.592 93.57 453.105 93.71L452.335 101.9C451.915 101.807 451.355 101.737 450.655 101.69C450.002 101.597 449.418 101.55 448.905 101.55C447.505 101.55 446.152 101.783 444.845 102.25C443.585 102.67 442.442 103.323 441.415 104.21C440.435 105.05 439.642 106.147 439.035 107.5C438.475 108.853 438.195 110.463 438.195 112.33V132H429.375V94.06H436.165L437.425 100.64H437.845C438.592 99.2867 439.525 98.0733 440.645 97C441.765 95.88 443.048 94.9933 444.495 94.34C445.988 93.6867 447.575 93.36 449.255 93.36ZM474.03 93.36C477.436 93.36 480.353 94.06 482.78 95.46C485.253 96.8133 487.166 98.7733 488.52 101.34C489.873 103.86 490.55 106.94 490.55 110.58V115.06H465.49C465.583 118.513 466.54 121.197 468.36 123.11C470.18 124.977 472.7 125.91 475.92 125.91C478.393 125.91 480.586 125.677 482.5 125.21C484.46 124.697 486.466 123.973 488.52 123.04V130.11C486.653 130.997 484.716 131.65 482.71 132.07C480.703 132.49 478.3 132.7 475.5 132.7C471.813 132.7 468.523 132 465.63 130.6C462.783 129.153 460.543 126.983 458.91 124.09C457.323 121.197 456.53 117.603 456.53 113.31C456.53 108.97 457.253 105.33 458.7 102.39C460.193 99.4033 462.246 97.1633 464.86 95.67C467.473 94.13 470.53 93.36 474.03 93.36ZM474.03 99.87C471.696 99.87 469.783 100.64 468.29 102.18C466.843 103.673 465.98 105.913 465.7 108.9H482.01C482.01 107.127 481.706 105.563 481.1 104.21C480.54 102.857 479.676 101.807 478.51 101.06C477.343 100.267 475.85 99.87 474.03 99.87Z" fill="white"/>
<path d="M183.932 42.896C183.932 45.776 183.416 48.188 182.384 50.132C181.376 52.076 179.912 53.54 177.992 54.524C176.072 55.508 173.768 56 171.08 56H164.024V30.296H171.8C174.296 30.296 176.456 30.776 178.28 31.736C180.104 32.696 181.496 34.112 182.456 35.984C183.44 37.832 183.932 40.136 183.932 42.896ZM178.892 43.04C178.892 41 178.616 39.32 178.064 38C177.536 36.68 176.732 35.708 175.652 35.084C174.596 34.436 173.288 34.112 171.728 34.112H168.848V52.148H171.188C173.78 52.148 175.712 51.392 176.984 49.88C178.256 48.344 178.892 46.064 178.892 43.04ZM205.259 46.208C205.259 47.84 205.055 49.28 204.647 50.528C204.239 51.776 203.639 52.844 202.847 53.732C202.079 54.596 201.143 55.256 200.039 55.712C198.935 56.144 197.699 56.36 196.331 56.36C195.059 56.36 193.871 56.144 192.767 55.712C191.687 55.256 190.751 54.596 189.959 53.732C189.191 52.844 188.591 51.776 188.159 50.528C187.727 49.28 187.511 47.84 187.511 46.208C187.511 44.048 187.859 42.224 188.555 40.736C189.275 39.224 190.307 38.084 191.651 37.316C192.995 36.524 194.591 36.128 196.439 36.128C198.167 36.128 199.691 36.524 201.011 37.316C202.331 38.084 203.363 39.224 204.107 40.736C204.875 42.224 205.259 44.048 205.259 46.208ZM192.371 46.208C192.371 47.576 192.515 48.752 192.803 49.736C193.091 50.696 193.523 51.428 194.099 51.932C194.699 52.436 195.467 52.688 196.403 52.688C197.339 52.688 198.095 52.436 198.671 51.932C199.271 51.428 199.703 50.696 199.967 49.736C200.255 48.752 200.399 47.576 200.399 46.208C200.399 44.816 200.255 43.652 199.967 42.716C199.679 41.756 199.235 41.036 198.635 40.556C198.059 40.052 197.303 39.8 196.367 39.8C194.951 39.8 193.931 40.352 193.307 41.456C192.683 42.56 192.371 44.144 192.371 46.208ZM221.584 45.416C221.488 44.984 221.392 44.552 221.296 44.12C221.2 43.664 221.104 43.22 221.008 42.788C220.912 42.356 220.828 41.948 220.756 41.564C220.684 41.18 220.624 40.82 220.576 40.484H220.468C220.444 40.82 220.396 41.192 220.324 41.6C220.252 41.984 220.168 42.392 220.072 42.824C220 43.256 219.904 43.7 219.784 44.156C219.688 44.612 219.592 45.068 219.496 45.524L216.868 56H211.36L206.536 36.452H211.252L213.376 46.604C213.496 47.252 213.616 47.9 213.736 48.548C213.856 49.196 213.964 49.82 214.06 50.42C214.156 50.996 214.228 51.512 214.276 51.968H214.42C214.468 51.656 214.528 51.272 214.6 50.816C214.672 50.336 214.756 49.856 214.852 49.376C214.948 48.872 215.032 48.404 215.104 47.972C215.2 47.54 215.284 47.192 215.356 46.928L217.948 36.452H223.168L225.688 46.928C225.784 47.336 225.892 47.852 226.012 48.476C226.132 49.076 226.24 49.688 226.336 50.312C226.456 50.936 226.528 51.476 226.552 51.932H226.66C226.708 51.5 226.78 50.996 226.876 50.42C226.972 49.844 227.08 49.232 227.2 48.584C227.344 47.912 227.488 47.252 227.632 46.604L229.9 36.452H234.508L229.576 56H224.032L221.584 45.416ZM247.715 36.128C249.755 36.128 251.363 36.692 252.539 37.82C253.715 38.948 254.303 40.772 254.303 43.292V56H249.515V44.192C249.515 42.728 249.263 41.636 248.759 40.916C248.255 40.172 247.463 39.8 246.383 39.8C244.775 39.8 243.683 40.376 243.107 41.528C242.531 42.656 242.243 44.3 242.243 46.46V56H237.455V36.488H241.127L241.811 39.044H241.991C242.423 38.372 242.927 37.82 243.503 37.388C244.079 36.956 244.727 36.644 245.447 36.452C246.167 36.236 246.923 36.128 247.715 36.128ZM264.181 56H259.393V28.64H264.181V56ZM286.153 46.208C286.153 47.84 285.949 49.28 285.541 50.528C285.133 51.776 284.533 52.844 283.741 53.732C282.973 54.596 282.037 55.256 280.933 55.712C279.829 56.144 278.593 56.36 277.225 56.36C275.953 56.36 274.765 56.144 273.661 55.712C272.581 55.256 271.645 54.596 270.853 53.732C270.085 52.844 269.485 51.776 269.053 50.528C268.621 49.28 268.405 47.84 268.405 46.208C268.405 44.048 268.753 42.224 269.449 40.736C270.169 39.224 271.201 38.084 272.545 37.316C273.889 36.524 275.485 36.128 277.333 36.128C279.061 36.128 280.585 36.524 281.905 37.316C283.225 38.084 284.257 39.224 285.001 40.736C285.769 42.224 286.153 44.048 286.153 46.208ZM273.265 46.208C273.265 47.576 273.409 48.752 273.697 49.736C273.985 50.696 274.417 51.428 274.993 51.932C275.593 52.436 276.361 52.688 277.297 52.688C278.233 52.688 278.989 52.436 279.565 51.932C280.165 51.428 280.597 50.696 280.861 49.736C281.149 48.752 281.293 47.576 281.293 46.208C281.293 44.816 281.149 43.652 280.861 42.716C280.573 41.756 280.129 41.036 279.529 40.556C278.953 40.052 278.197 39.8 277.261 39.8C275.845 39.8 274.825 40.352 274.201 41.456C273.577 42.56 273.265 44.144 273.265 46.208ZM298.142 36.128C300.494 36.128 302.294 36.68 303.542 37.784C304.79 38.864 305.414 40.568 305.414 42.896V56H302.066L301.13 53.3H300.986C300.458 53.996 299.918 54.584 299.366 55.064C298.814 55.52 298.178 55.844 297.458 56.036C296.738 56.252 295.874 56.36 294.866 56.36C293.786 56.36 292.814 56.144 291.95 55.712C291.086 55.28 290.402 54.62 289.898 53.732C289.394 52.82 289.142 51.68 289.142 50.312C289.142 48.296 289.838 46.784 291.23 45.776C292.622 44.744 294.71 44.18 297.494 44.084L300.626 43.976V43.004C300.626 41.756 300.362 40.868 299.834 40.34C299.306 39.812 298.586 39.548 297.674 39.548C296.81 39.548 295.934 39.692 295.046 39.98C294.182 40.268 293.33 40.604 292.49 40.988L291.014 37.82C291.998 37.316 293.09 36.908 294.29 36.596C295.49 36.284 296.774 36.128 298.142 36.128ZM298.61 46.856C296.906 46.928 295.718 47.276 295.046 47.9C294.374 48.5 294.038 49.316 294.038 50.348C294.038 51.26 294.266 51.92 294.722 52.328C295.202 52.736 295.826 52.94 296.594 52.94C297.722 52.94 298.682 52.568 299.474 51.824C300.266 51.056 300.662 49.928 300.662 48.44V46.784L298.61 46.856ZM316.523 56.36C314.435 56.36 312.743 55.52 311.447 53.84C310.151 52.136 309.503 49.616 309.503 46.28C309.503 42.944 310.163 40.424 311.483 38.72C312.803 36.992 314.531 36.128 316.667 36.128C317.555 36.128 318.323 36.26 318.971 36.524C319.643 36.764 320.219 37.1 320.699 37.532C321.179 37.964 321.599 38.444 321.959 38.972H322.103C322.055 38.636 321.995 38.12 321.923 37.424C321.851 36.728 321.815 36.08 321.815 35.48V28.64H326.603V56H322.931L322.031 53.444H321.815C321.503 53.972 321.107 54.464 320.627 54.92C320.147 55.352 319.571 55.7 318.899 55.964C318.227 56.228 317.435 56.36 316.523 56.36ZM318.107 52.688C319.571 52.688 320.603 52.208 321.203 51.248C321.803 50.288 322.103 48.836 322.103 46.892V46.316C322.103 44.204 321.815 42.596 321.239 41.492C320.663 40.388 319.607 39.836 318.071 39.836C316.871 39.836 315.947 40.412 315.299 41.564C314.675 42.692 314.363 44.288 314.363 46.352C314.363 48.416 314.687 49.988 315.335 51.068C315.983 52.148 316.907 52.688 318.107 52.688ZM357.345 46.208C357.345 47.84 357.141 49.28 356.733 50.528C356.325 51.776 355.725 52.844 354.933 53.732C354.165 54.596 353.229 55.256 352.125 55.712C351.021 56.144 349.785 56.36 348.417 56.36C347.145 56.36 345.957 56.144 344.853 55.712C343.773 55.256 342.837 54.596 342.045 53.732C341.277 52.844 340.677 51.776 340.245 50.528C339.813 49.28 339.597 47.84 339.597 46.208C339.597 44.048 339.945 42.224 340.641 40.736C341.361 39.224 342.393 38.084 343.737 37.316C345.081 36.524 346.677 36.128 348.525 36.128C350.253 36.128 351.777 36.524 353.097 37.316C354.417 38.084 355.449 39.224 356.193 40.736C356.961 42.224 357.345 44.048 357.345 46.208ZM344.457 46.208C344.457 47.576 344.601 48.752 344.889 49.736C345.177 50.696 345.609 51.428 346.185 51.932C346.785 52.436 347.553 52.688 348.489 52.688C349.425 52.688 350.181 52.436 350.757 51.932C351.357 51.428 351.789 50.696 352.053 49.736C352.341 48.752 352.485 47.576 352.485 46.208C352.485 44.816 352.341 43.652 352.053 42.716C351.765 41.756 351.321 41.036 350.721 40.556C350.145 40.052 349.389 39.8 348.453 39.8C347.037 39.8 346.017 40.352 345.393 41.456C344.769 42.56 344.457 44.144 344.457 46.208ZM371.782 36.128C373.822 36.128 375.43 36.692 376.606 37.82C377.782 38.948 378.37 40.772 378.37 43.292V56H373.582V44.192C373.582 42.728 373.33 41.636 372.826 40.916C372.322 40.172 371.53 39.8 370.45 39.8C368.842 39.8 367.75 40.376 367.174 41.528C366.598 42.656 366.31 44.3 366.31 46.46V56H361.522V36.488H365.194L365.878 39.044H366.058C366.49 38.372 366.994 37.82 367.57 37.388C368.146 36.956 368.794 36.644 369.514 36.452C370.234 36.236 370.99 36.128 371.782 36.128ZM399.88 52.724C400.408 52.724 400.912 52.676 401.392 52.58C401.896 52.46 402.364 52.328 402.796 52.184V55.568C402.292 55.784 401.68 55.964 400.96 56.108C400.24 56.276 399.436 56.36 398.548 56.36C397.444 56.36 396.46 56.18 395.596 55.82C394.732 55.436 394.048 54.788 393.544 53.876C393.064 52.964 392.824 51.692 392.824 50.06V39.908H390.376V37.928L393.112 36.344L394.552 32.204H397.576V36.488H402.616V39.908H397.576V50.024C397.576 50.936 397.78 51.62 398.188 52.076C398.62 52.508 399.184 52.724 399.88 52.724ZM411.134 35.156C411.134 35.924 411.098 36.68 411.026 37.424C410.978 38.144 410.93 38.684 410.882 39.044H411.17C411.554 38.372 412.01 37.832 412.538 37.424C413.09 36.992 413.702 36.668 414.374 36.452C415.07 36.236 415.79 36.128 416.534 36.128C417.902 36.128 419.078 36.38 420.062 36.884C421.046 37.388 421.814 38.168 422.366 39.224C422.918 40.256 423.194 41.612 423.194 43.292V56H418.406V44.192C418.406 42.704 418.154 41.6 417.65 40.88C417.146 40.16 416.354 39.8 415.274 39.8C414.242 39.8 413.414 40.064 412.79 40.592C412.166 41.096 411.734 41.852 411.494 42.86C411.254 43.844 411.134 45.056 411.134 46.496V56H406.346V28.64H411.134V35.156ZM435.951 36.128C437.631 36.128 439.071 36.488 440.271 37.208C441.495 37.904 442.443 38.912 443.115 40.232C443.787 41.528 444.123 43.112 444.123 44.984V47.288H432.171C432.219 49.064 432.651 50.444 433.467 51.428C434.307 52.388 435.483 52.868 436.995 52.868C438.195 52.868 439.263 52.748 440.199 52.508C441.135 52.244 442.107 51.872 443.115 51.392V55.028C442.203 55.484 441.255 55.82 440.271 56.036C439.287 56.252 438.075 56.36 436.635 56.36C434.811 56.36 433.191 56 431.775 55.28C430.383 54.536 429.291 53.42 428.499 51.932C427.707 50.444 427.311 48.596 427.311 46.388C427.311 44.156 427.671 42.284 428.391 40.772C429.111 39.236 430.119 38.084 431.415 37.316C432.735 36.524 434.247 36.128 435.951 36.128ZM436.023 39.476C434.943 39.476 434.067 39.872 433.395 40.664C432.747 41.432 432.363 42.584 432.243 44.12H439.587C439.587 43.208 439.455 42.404 439.191 41.708C438.927 41.012 438.531 40.472 438.003 40.088C437.499 39.68 436.839 39.476 436.023 39.476Z" fill="white"/>
<g clip-path="url(#clip0_42_54)">
<path d="M114.455 70.4082C113.885 70.8492 103.821 76.5038 103.821 89.0772C103.821 103.62 116.627 108.765 117.01 108.893C116.951 109.206 114.975 115.939 110.258 122.799C106.052 128.836 101.658 134.863 94.9754 134.863C88.2924 134.863 86.5725 130.992 78.8575 130.992C71.3391 130.992 68.6658 134.99 62.5528 134.99C56.4398 134.99 52.1744 129.404 47.2703 122.544C41.5897 114.489 37 101.974 37 90.0964C37 71.0452 49.4226 60.9414 61.6486 60.9414C68.145 60.9414 73.5602 65.1946 77.6388 65.1946C81.5209 65.1946 87.5749 60.6866 94.9656 60.6866C97.7666 60.6866 107.83 60.9414 114.455 70.4082ZM91.457 52.6212C94.5135 49.005 96.6757 43.9874 96.6757 38.9698C96.6757 38.274 96.6167 37.5684 96.4889 37C91.516 37.1862 85.5995 40.3026 82.0319 44.4284C79.231 47.6036 76.6167 52.6212 76.6167 57.7074C76.6167 58.4718 76.7445 59.2362 76.8034 59.4812C77.1179 59.54 77.629 59.6086 78.1401 59.6086C82.602 59.6086 88.2138 56.6294 91.457 52.6212Z" fill="white"/>
</g>
<defs>
<clipPath id="clip0_42_54">
<rect width="80" height="98" fill="white" transform="translate(37 37)"/>
</clipPath>
</defs>
</svg>
