<svg width="592" height="177" viewBox="0 0 592 177" fill="none" xmlns="http://www.w3.org/2000/svg">
<rect width="592" height="177" rx="32" fill="black"/>
<path d="M198.38 132L193.83 118.77H175L170.52 132H161L179.34 81.81H189.56L207.9 132H198.38ZM187.18 98.19C186.993 97.5367 186.713 96.65 186.34 95.53C185.967 94.41 185.593 93.2667 185.22 92.1C184.893 90.8867 184.637 89.8833 184.45 89.09C184.217 90.0233 183.913 91.0967 183.54 92.31C183.213 93.5233 182.887 94.6667 182.56 95.74C182.28 96.8133 182.047 97.63 181.86 98.19L177.45 111.07H191.52L187.18 98.19ZM233.583 93.36C238.016 93.36 241.586 95.0167 244.293 98.33C247 101.597 248.353 106.473 248.353 112.96C248.353 117.253 247.723 120.87 246.463 123.81C245.203 126.75 243.453 128.967 241.213 130.46C238.973 131.953 236.36 132.7 233.373 132.7C231.553 132.7 229.943 132.467 228.543 132C227.143 131.487 225.953 130.857 224.973 130.11C223.993 129.317 223.153 128.477 222.453 127.59H221.893C222.08 128.43 222.22 129.387 222.313 130.46C222.406 131.487 222.453 132.467 222.453 133.4V148.8H213.633V94.06H220.773L222.033 99.1H222.453C223.153 98.0267 223.993 97.07 224.973 96.23C226 95.3433 227.213 94.6433 228.613 94.13C230.06 93.6167 231.716 93.36 233.583 93.36ZM231.063 100.5C229.01 100.5 227.353 100.92 226.093 101.76C224.833 102.553 223.923 103.79 223.363 105.47C222.803 107.15 222.5 109.25 222.453 111.77V112.89C222.453 115.597 222.71 117.883 223.223 119.75C223.783 121.617 224.693 123.04 225.953 124.02C227.26 125 229.01 125.49 231.203 125.49C233.07 125.49 234.586 124.977 235.753 123.95C236.966 122.923 237.853 121.477 238.413 119.61C239.02 117.697 239.323 115.433 239.323 112.82C239.323 108.9 238.646 105.867 237.293 103.72C235.986 101.573 233.91 100.5 231.063 100.5ZM277.401 93.36C281.835 93.36 285.405 95.0167 288.111 98.33C290.818 101.597 292.171 106.473 292.171 112.96C292.171 117.253 291.541 120.87 290.281 123.81C289.021 126.75 287.271 128.967 285.031 130.46C282.791 131.953 280.178 132.7 277.191 132.7C275.371 132.7 273.761 132.467 272.361 132C270.961 131.487 269.771 130.857 268.791 130.11C267.811 129.317 266.971 128.477 266.271 127.59H265.711C265.898 128.43 266.038 129.387 266.131 130.46C266.225 131.487 266.271 132.467 266.271 133.4V148.8H257.451V94.06H264.591L265.851 99.1H266.271C266.971 98.0267 267.811 97.07 268.791 96.23C269.818 95.3433 271.031 94.6433 272.431 94.13C273.878 93.6167 275.535 93.36 277.401 93.36ZM274.881 100.5C272.828 100.5 271.171 100.92 269.911 101.76C268.651 102.553 267.741 103.79 267.181 105.47C266.621 107.15 266.318 109.25 266.271 111.77V112.89C266.271 115.597 266.528 117.883 267.041 119.75C267.601 121.617 268.511 123.04 269.771 124.02C271.078 125 272.828 125.49 275.021 125.49C276.888 125.49 278.405 124.977 279.571 123.95C280.785 122.923 281.671 121.477 282.231 119.61C282.838 117.697 283.141 115.433 283.141 112.82C283.141 108.9 282.465 105.867 281.111 103.72C279.805 101.573 277.728 100.5 274.881 100.5ZM349.343 118.35C349.343 121.29 348.62 123.833 347.173 125.98C345.727 128.127 343.627 129.783 340.873 130.95C338.167 132.117 334.923 132.7 331.143 132.7C329.323 132.7 327.573 132.583 325.893 132.35C324.26 132.163 322.697 131.86 321.203 131.44C319.757 131.02 318.403 130.507 317.143 129.9V121.5C319.243 122.433 321.553 123.297 324.073 124.09C326.593 124.837 329.16 125.21 331.773 125.21C333.78 125.21 335.413 124.953 336.673 124.44C337.98 123.88 338.937 123.133 339.543 122.2C340.15 121.22 340.453 120.1 340.453 118.84C340.453 117.44 340.057 116.25 339.263 115.27C338.47 114.29 337.303 113.38 335.763 112.54C334.223 111.7 332.31 110.813 330.023 109.88C328.483 109.227 326.967 108.503 325.473 107.71C324.027 106.87 322.72 105.867 321.553 104.7C320.387 103.533 319.453 102.157 318.753 100.57C318.053 98.9833 317.703 97.1167 317.703 94.97C317.703 92.1233 318.38 89.6733 319.733 87.62C321.133 85.5667 323.07 84.0033 325.543 82.93C328.063 81.8567 330.98 81.32 334.293 81.32C336.953 81.32 339.45 81.6 341.783 82.16C344.117 82.72 346.427 83.5133 348.713 84.54L345.843 91.75C343.79 90.8633 341.807 90.1633 339.893 89.65C337.98 89.1367 336.02 88.88 334.013 88.88C332.427 88.88 331.073 89.1367 329.953 89.65C328.833 90.1167 327.993 90.7933 327.433 91.68C326.873 92.5667 326.593 93.5933 326.593 94.76C326.593 96.1133 326.943 97.2567 327.643 98.19C328.343 99.1233 329.417 100.01 330.863 100.85C332.357 101.643 334.27 102.553 336.603 103.58C339.31 104.747 341.597 105.96 343.463 107.22C345.33 108.48 346.777 109.997 347.803 111.77C348.83 113.543 349.343 115.737 349.343 118.35ZM372.64 125.63C373.76 125.63 374.833 125.537 375.86 125.35C376.886 125.117 377.843 124.86 378.73 124.58V131.16C377.796 131.58 376.583 131.93 375.09 132.21C373.596 132.537 372.033 132.7 370.4 132.7C368.253 132.7 366.293 132.35 364.52 131.65C362.793 130.903 361.393 129.643 360.32 127.87C359.293 126.097 358.78 123.623 358.78 120.45V100.71H353.67V96.86L359.27 93.78L362.07 85.73H367.6V94.06H378.38V100.71H367.6V120.38C367.6 122.153 368.066 123.483 369 124.37C369.933 125.21 371.146 125.63 372.64 125.63ZM420.257 112.96C420.257 116.133 419.837 118.933 418.997 121.36C418.157 123.787 416.944 125.863 415.357 127.59C413.817 129.27 411.904 130.553 409.617 131.44C407.377 132.28 404.88 132.7 402.127 132.7C399.514 132.7 397.11 132.28 394.917 131.44C392.724 130.553 390.81 129.27 389.177 127.59C387.59 125.863 386.354 123.787 385.467 121.36C384.58 118.933 384.137 116.133 384.137 112.96C384.137 108.76 384.86 105.213 386.307 102.32C387.754 99.38 389.83 97.1633 392.537 95.67C395.29 94.13 398.534 93.36 402.267 93.36C405.814 93.36 408.917 94.13 411.577 95.67C414.284 97.1633 416.407 99.38 417.947 102.32C419.487 105.213 420.257 108.76 420.257 112.96ZM393.167 112.96C393.167 115.62 393.47 117.907 394.077 119.82C394.73 121.687 395.71 123.11 397.017 124.09C398.37 125.07 400.097 125.56 402.197 125.56C404.344 125.56 406.07 125.07 407.377 124.09C408.73 123.11 409.71 121.687 410.317 119.82C410.924 117.907 411.227 115.62 411.227 112.96C411.227 110.253 410.9 107.99 410.247 106.17C409.64 104.303 408.66 102.903 407.307 101.97C406 100.99 404.297 100.5 402.197 100.5C399.024 100.5 396.714 101.573 395.267 103.72C393.867 105.867 393.167 108.947 393.167 112.96ZM449.255 93.36C449.815 93.36 450.468 93.3833 451.215 93.43C451.962 93.4767 452.592 93.57 453.105 93.71L452.335 101.9C451.915 101.807 451.355 101.737 450.655 101.69C450.002 101.597 449.418 101.55 448.905 101.55C447.505 101.55 446.152 101.783 444.845 102.25C443.585 102.67 442.442 103.323 441.415 104.21C440.435 105.05 439.642 106.147 439.035 107.5C438.475 108.853 438.195 110.463 438.195 112.33V132H429.375V94.06H436.165L437.425 100.64H437.845C438.592 99.2867 439.525 98.0733 440.645 97C441.765 95.88 443.048 94.9933 444.495 94.34C445.988 93.6867 447.575 93.36 449.255 93.36ZM474.03 93.36C477.436 93.36 480.353 94.06 482.78 95.46C485.253 96.8133 487.166 98.7733 488.52 101.34C489.873 103.86 490.55 106.94 490.55 110.58V115.06H465.49C465.583 118.513 466.54 121.197 468.36 123.11C470.18 124.977 472.7 125.91 475.92 125.91C478.393 125.91 480.586 125.677 482.5 125.21C484.46 124.697 486.466 123.973 488.52 123.04V130.11C486.653 130.997 484.716 131.65 482.71 132.07C480.703 132.49 478.3 132.7 475.5 132.7C471.813 132.7 468.523 132 465.63 130.6C462.783 129.153 460.543 126.983 458.91 124.09C457.323 121.197 456.53 117.603 456.53 113.31C456.53 108.97 457.253 105.33 458.7 102.39C460.193 99.4033 462.246 97.1633 464.86 95.67C467.473 94.13 470.53 93.36 474.03 93.36ZM474.03 99.87C471.696 99.87 469.783 100.64 468.29 102.18C466.843 103.673 465.98 105.913 465.7 108.9H482.01C482.01 107.127 481.706 105.563 481.1 104.21C480.54 102.857 479.676 101.807 478.51 101.06C477.343 100.267 475.85 99.87 474.03 99.87Z" fill="white"/>
<path d="M174.428 33.824C173.42 33.824 172.508 34.04 171.692 34.472C170.876 34.904 170.18 35.528 169.604 36.344C169.052 37.16 168.632 38.144 168.344 39.296C168.056 40.448 167.912 41.744 167.912 43.184C167.912 45.128 168.152 46.796 168.632 48.188C169.112 49.556 169.844 50.612 170.828 51.356C171.812 52.1 173.048 52.472 174.536 52.472C175.568 52.472 176.576 52.364 177.56 52.148C178.544 51.908 179.54 51.596 180.548 51.212V55.136C179.564 55.568 178.544 55.88 177.488 56.072C176.456 56.264 175.292 56.36 173.996 56.36C171.476 56.36 169.4 55.82 167.768 54.74C166.136 53.636 164.912 52.1 164.096 50.132C163.304 48.14 162.908 45.812 162.908 43.148C162.908 41.204 163.16 39.428 163.664 37.82C164.168 36.212 164.912 34.82 165.896 33.644C166.88 32.468 168.092 31.556 169.532 30.908C170.972 30.26 172.616 29.936 174.464 29.936C175.688 29.936 176.924 30.092 178.172 30.404C179.444 30.692 180.56 31.1 181.52 31.628L179.9 35.408C179.06 35 178.184 34.64 177.272 34.328C176.384 33.992 175.436 33.824 174.428 33.824ZM201.954 46.208C201.954 47.84 201.75 49.28 201.342 50.528C200.934 51.776 200.334 52.844 199.542 53.732C198.774 54.596 197.838 55.256 196.734 55.712C195.63 56.144 194.394 56.36 193.026 56.36C191.754 56.36 190.566 56.144 189.462 55.712C188.382 55.256 187.446 54.596 186.654 53.732C185.886 52.844 185.286 51.776 184.854 50.528C184.422 49.28 184.206 47.84 184.206 46.208C184.206 44.048 184.554 42.224 185.25 40.736C185.97 39.224 187.002 38.084 188.346 37.316C189.69 36.524 191.286 36.128 193.134 36.128C194.862 36.128 196.386 36.524 197.706 37.316C199.026 38.084 200.058 39.224 200.802 40.736C201.57 42.224 201.954 44.048 201.954 46.208ZM189.066 46.208C189.066 47.576 189.21 48.752 189.498 49.736C189.786 50.696 190.218 51.428 190.794 51.932C191.394 52.436 192.162 52.688 193.098 52.688C194.034 52.688 194.79 52.436 195.366 51.932C195.966 51.428 196.398 50.696 196.662 49.736C196.95 48.752 197.094 47.576 197.094 46.208C197.094 44.816 196.95 43.652 196.662 42.716C196.374 41.756 195.93 41.036 195.33 40.556C194.754 40.052 193.998 39.8 193.062 39.8C191.646 39.8 190.626 40.352 190.002 41.456C189.378 42.56 189.066 44.144 189.066 46.208ZM227.551 36.128C229.663 36.128 231.247 36.692 232.303 37.82C233.359 38.948 233.887 40.772 233.887 43.292V56H229.171V44.156C229.171 42.716 228.931 41.636 228.451 40.916C227.971 40.172 227.227 39.8 226.219 39.8C224.827 39.8 223.843 40.316 223.267 41.348C222.691 42.38 222.403 43.88 222.403 45.848V56H217.651V44.156C217.651 43.196 217.543 42.392 217.327 41.744C217.111 41.096 216.787 40.616 216.355 40.304C215.923 39.968 215.371 39.8 214.699 39.8C213.739 39.8 212.983 40.064 212.431 40.592C211.879 41.096 211.483 41.84 211.243 42.824C211.027 43.808 210.919 45.02 210.919 46.46V56H206.131V36.488H209.803L210.487 39.044H210.703C211.063 38.372 211.507 37.82 212.035 37.388C212.587 36.956 213.211 36.644 213.907 36.452C214.627 36.236 215.371 36.128 216.139 36.128C217.507 36.128 218.647 36.38 219.559 36.884C220.495 37.364 221.215 38.12 221.719 39.152H221.971C222.571 38.096 223.363 37.328 224.347 36.848C225.355 36.368 226.423 36.128 227.551 36.128ZM260.422 36.128C262.534 36.128 264.118 36.692 265.174 37.82C266.23 38.948 266.758 40.772 266.758 43.292V56H262.042V44.156C262.042 42.716 261.802 41.636 261.322 40.916C260.842 40.172 260.098 39.8 259.09 39.8C257.698 39.8 256.714 40.316 256.138 41.348C255.562 42.38 255.274 43.88 255.274 45.848V56H250.522V44.156C250.522 43.196 250.414 42.392 250.198 41.744C249.982 41.096 249.658 40.616 249.226 40.304C248.794 39.968 248.242 39.8 247.57 39.8C246.61 39.8 245.854 40.064 245.302 40.592C244.75 41.096 244.354 41.84 244.114 42.824C243.898 43.808 243.79 45.02 243.79 46.46V56H239.002V36.488H242.674L243.358 39.044H243.574C243.934 38.372 244.378 37.82 244.906 37.388C245.458 36.956 246.082 36.644 246.778 36.452C247.498 36.236 248.242 36.128 249.01 36.128C250.378 36.128 251.518 36.38 252.43 36.884C253.366 37.364 254.086 38.12 254.59 39.152H254.842C255.442 38.096 256.234 37.328 257.218 36.848C258.226 36.368 259.294 36.128 260.422 36.128ZM276.661 36.488V56H271.909V36.488H276.661ZM274.321 28.964C275.017 28.964 275.617 29.144 276.121 29.504C276.625 29.84 276.877 30.452 276.877 31.34C276.877 32.204 276.625 32.828 276.121 33.212C275.617 33.572 275.017 33.752 274.321 33.752C273.577 33.752 272.953 33.572 272.449 33.212C271.945 32.828 271.693 32.204 271.693 31.34C271.693 30.452 271.945 29.84 272.449 29.504C272.953 29.144 273.577 28.964 274.321 28.964ZM292.118 36.128C294.158 36.128 295.766 36.692 296.942 37.82C298.118 38.948 298.706 40.772 298.706 43.292V56H293.918V44.192C293.918 42.728 293.666 41.636 293.162 40.916C292.658 40.172 291.866 39.8 290.786 39.8C289.178 39.8 288.086 40.376 287.51 41.528C286.934 42.656 286.646 44.3 286.646 46.46V56H281.858V36.488H285.53L286.214 39.044H286.394C286.826 38.372 287.33 37.82 287.906 37.388C288.482 36.956 289.13 36.644 289.85 36.452C290.57 36.236 291.326 36.128 292.118 36.128ZM309.951 36.128C311.151 36.128 312.195 36.368 313.083 36.848C313.971 37.328 314.715 38.048 315.315 39.008H315.459L315.891 36.488H319.923V56.144C319.923 57.992 319.587 59.54 318.915 60.788C318.243 62.06 317.235 63.02 315.891 63.668C314.571 64.316 312.891 64.64 310.851 64.64C309.483 64.64 308.235 64.544 307.107 64.352C306.003 64.184 304.947 63.884 303.939 63.452V59.708C304.635 60.02 305.343 60.284 306.063 60.5C306.807 60.74 307.575 60.92 308.367 61.04C309.159 61.16 309.999 61.22 310.887 61.22C312.279 61.22 313.335 60.8 314.055 59.96C314.799 59.12 315.171 57.92 315.171 56.36V55.856C315.171 55.496 315.183 55.076 315.207 54.596C315.255 54.116 315.291 53.732 315.315 53.444H315.171C314.595 54.452 313.875 55.196 313.011 55.676C312.147 56.132 311.103 56.36 309.879 56.36C307.695 56.36 305.967 55.472 304.695 53.696C303.447 51.92 302.823 49.448 302.823 46.28C302.823 44.144 303.111 42.32 303.687 40.808C304.263 39.296 305.079 38.144 306.135 37.352C307.215 36.536 308.487 36.128 309.951 36.128ZM311.391 39.836C310.575 39.836 309.891 40.088 309.339 40.592C308.811 41.072 308.403 41.792 308.115 42.752C307.827 43.712 307.683 44.912 307.683 46.352C307.683 48.464 307.995 50.06 308.619 51.14C309.243 52.22 310.179 52.76 311.427 52.76C312.147 52.76 312.759 52.664 313.263 52.472C313.767 52.256 314.175 51.92 314.487 51.464C314.799 50.984 315.039 50.384 315.207 49.664C315.375 48.92 315.459 48.032 315.459 47V46.316C315.459 44.756 315.315 43.508 315.027 42.572C314.763 41.612 314.331 40.916 313.731 40.484C313.131 40.052 312.351 39.836 311.391 39.836ZM346.741 50.348C346.741 51.644 346.453 52.748 345.877 53.66C345.301 54.548 344.449 55.22 343.321 55.676C342.193 56.132 340.777 56.36 339.073 56.36C337.777 56.36 336.649 56.264 335.689 56.072C334.729 55.88 333.805 55.58 332.917 55.172V51.32C333.877 51.776 334.909 52.16 336.013 52.472C337.141 52.784 338.161 52.94 339.073 52.94C340.153 52.94 340.933 52.748 341.413 52.364C341.893 51.98 342.133 51.464 342.133 50.816C342.133 50.432 342.025 50.084 341.809 49.772C341.617 49.46 341.209 49.136 340.585 48.8C339.985 48.44 339.109 47.996 337.957 47.468C336.829 46.964 335.893 46.46 335.149 45.956C334.405 45.452 333.841 44.852 333.457 44.156C333.073 43.436 332.881 42.536 332.881 41.456C332.881 39.704 333.541 38.384 334.861 37.496C336.205 36.584 337.957 36.128 340.117 36.128C341.293 36.128 342.385 36.248 343.393 36.488C344.425 36.704 345.457 37.064 346.489 37.568L345.085 40.916C344.509 40.652 343.921 40.424 343.321 40.232C342.745 40.016 342.181 39.848 341.629 39.728C341.101 39.608 340.573 39.548 340.045 39.548C339.205 39.548 338.569 39.704 338.137 40.016C337.705 40.304 337.489 40.724 337.489 41.276C337.489 41.66 337.597 42.008 337.813 42.32C338.029 42.608 338.437 42.908 339.037 43.22C339.637 43.532 340.489 43.928 341.593 44.408C342.697 44.84 343.633 45.308 344.401 45.812C345.169 46.292 345.745 46.892 346.129 47.612C346.537 48.332 346.741 49.244 346.741 50.348ZM367.505 46.208C367.505 47.84 367.301 49.28 366.893 50.528C366.485 51.776 365.885 52.844 365.093 53.732C364.325 54.596 363.389 55.256 362.285 55.712C361.181 56.144 359.945 56.36 358.577 56.36C357.305 56.36 356.117 56.144 355.013 55.712C353.933 55.256 352.997 54.596 352.205 53.732C351.437 52.844 350.837 51.776 350.405 50.528C349.973 49.28 349.757 47.84 349.757 46.208C349.757 44.048 350.105 42.224 350.801 40.736C351.521 39.224 352.553 38.084 353.897 37.316C355.241 36.524 356.837 36.128 358.685 36.128C360.413 36.128 361.937 36.524 363.257 37.316C364.577 38.084 365.609 39.224 366.353 40.736C367.121 42.224 367.505 44.048 367.505 46.208ZM354.617 46.208C354.617 47.576 354.761 48.752 355.049 49.736C355.337 50.696 355.769 51.428 356.345 51.932C356.945 52.436 357.713 52.688 358.649 52.688C359.585 52.688 360.341 52.436 360.917 51.932C361.517 51.428 361.949 50.696 362.213 49.736C362.501 48.752 362.645 47.576 362.645 46.208C362.645 44.816 362.501 43.652 362.213 42.716C361.925 41.756 361.481 41.036 360.881 40.556C360.305 40.052 359.549 39.8 358.613 39.8C357.197 39.8 356.177 40.352 355.553 41.456C354.929 42.56 354.617 44.144 354.617 46.208ZM388.458 46.208C388.458 47.84 388.254 49.28 387.846 50.528C387.438 51.776 386.838 52.844 386.046 53.732C385.278 54.596 384.342 55.256 383.238 55.712C382.134 56.144 380.898 56.36 379.53 56.36C378.258 56.36 377.07 56.144 375.966 55.712C374.886 55.256 373.95 54.596 373.158 53.732C372.39 52.844 371.79 51.776 371.358 50.528C370.926 49.28 370.71 47.84 370.71 46.208C370.71 44.048 371.058 42.224 371.754 40.736C372.474 39.224 373.506 38.084 374.85 37.316C376.194 36.524 377.79 36.128 379.638 36.128C381.366 36.128 382.89 36.524 384.21 37.316C385.53 38.084 386.562 39.224 387.306 40.736C388.074 42.224 388.458 44.048 388.458 46.208ZM375.57 46.208C375.57 47.576 375.714 48.752 376.002 49.736C376.29 50.696 376.722 51.428 377.298 51.932C377.898 52.436 378.666 52.688 379.602 52.688C380.538 52.688 381.294 52.436 381.87 51.932C382.47 51.428 382.902 50.696 383.166 49.736C383.454 48.752 383.598 47.576 383.598 46.208C383.598 44.816 383.454 43.652 383.166 42.716C382.878 41.756 382.434 41.036 381.834 40.556C381.258 40.052 380.502 39.8 379.566 39.8C378.15 39.8 377.13 40.352 376.506 41.456C375.882 42.56 375.57 44.144 375.57 46.208ZM402.895 36.128C404.935 36.128 406.543 36.692 407.719 37.82C408.895 38.948 409.483 40.772 409.483 43.292V56H404.695V44.192C404.695 42.728 404.443 41.636 403.939 40.916C403.435 40.172 402.643 39.8 401.563 39.8C399.955 39.8 398.863 40.376 398.287 41.528C397.711 42.656 397.423 44.3 397.423 46.46V56H392.635V36.488H396.307L396.991 39.044H397.171C397.603 38.372 398.107 37.82 398.683 37.388C399.259 36.956 399.907 36.644 400.627 36.452C401.347 36.236 402.103 36.128 402.895 36.128Z" fill="white"/>
<g clip-path="url(#clip0_42_54)">
<path d="M114.455 70.4082C113.885 70.8492 103.821 76.5038 103.821 89.0772C103.821 103.62 116.627 108.765 117.01 108.893C116.951 109.206 114.975 115.939 110.258 122.799C106.052 128.836 101.658 134.863 94.9754 134.863C88.2924 134.863 86.5725 130.992 78.8575 130.992C71.3391 130.992 68.6658 134.99 62.5528 134.99C56.4398 134.99 52.1744 129.404 47.2703 122.544C41.5897 114.489 37 101.974 37 90.0964C37 71.0452 49.4226 60.9414 61.6486 60.9414C68.145 60.9414 73.5602 65.1946 77.6388 65.1946C81.5209 65.1946 87.5749 60.6866 94.9656 60.6866C97.7666 60.6866 107.83 60.9414 114.455 70.4082ZM91.457 52.6212C94.5135 49.005 96.6757 43.9874 96.6757 38.9698C96.6757 38.274 96.6167 37.5684 96.4889 37C91.516 37.1862 85.5995 40.3026 82.0319 44.4284C79.231 47.6036 76.6167 52.6212 76.6167 57.7074C76.6167 58.4718 76.7445 59.2362 76.8034 59.4812C77.1179 59.54 77.629 59.6086 78.1401 59.6086C82.602 59.6086 88.2138 56.6294 91.457 52.6212Z" fill="white"/>
</g>
<defs>
<clipPath id="clip0_42_54">
<rect width="80" height="98" fill="white" transform="translate(37 37)"/>
</clipPath>
</defs>
</svg>
