<svg width="592" height="177" viewBox="0 0 592 177" fill="none" xmlns="http://www.w3.org/2000/svg">
<rect width="592" height="177" rx="32" fill="black"/>
<path d="M198.38 132L193.83 118.77H175L170.52 132H161L179.34 81.81H189.56L207.9 132H198.38ZM187.18 98.19C186.993 97.5367 186.713 96.65 186.34 95.53C185.967 94.41 185.593 93.2667 185.22 92.1C184.893 90.8867 184.637 89.8833 184.45 89.09C184.217 90.0233 183.913 91.0967 183.54 92.31C183.213 93.5233 182.887 94.6667 182.56 95.74C182.28 96.8133 182.047 97.63 181.86 98.19L177.45 111.07H191.52L187.18 98.19ZM233.583 93.36C238.016 93.36 241.586 95.0167 244.293 98.33C247 101.597 248.353 106.473 248.353 112.96C248.353 117.253 247.723 120.87 246.463 123.81C245.203 126.75 243.453 128.967 241.213 130.46C238.973 131.953 236.36 132.7 233.373 132.7C231.553 132.7 229.943 132.467 228.543 132C227.143 131.487 225.953 130.857 224.973 130.11C223.993 129.317 223.153 128.477 222.453 127.59H221.893C222.08 128.43 222.22 129.387 222.313 130.46C222.406 131.487 222.453 132.467 222.453 133.4V148.8H213.633V94.06H220.773L222.033 99.1H222.453C223.153 98.0267 223.993 97.07 224.973 96.23C226 95.3433 227.213 94.6433 228.613 94.13C230.06 93.6167 231.716 93.36 233.583 93.36ZM231.063 100.5C229.01 100.5 227.353 100.92 226.093 101.76C224.833 102.553 223.923 103.79 223.363 105.47C222.803 107.15 222.5 109.25 222.453 111.77V112.89C222.453 115.597 222.71 117.883 223.223 119.75C223.783 121.617 224.693 123.04 225.953 124.02C227.26 125 229.01 125.49 231.203 125.49C233.07 125.49 234.586 124.977 235.753 123.95C236.966 122.923 237.853 121.477 238.413 119.61C239.02 117.697 239.323 115.433 239.323 112.82C239.323 108.9 238.646 105.867 237.293 103.72C235.986 101.573 233.91 100.5 231.063 100.5ZM277.401 93.36C281.835 93.36 285.405 95.0167 288.111 98.33C290.818 101.597 292.171 106.473 292.171 112.96C292.171 117.253 291.541 120.87 290.281 123.81C289.021 126.75 287.271 128.967 285.031 130.46C282.791 131.953 280.178 132.7 277.191 132.7C275.371 132.7 273.761 132.467 272.361 132C270.961 131.487 269.771 130.857 268.791 130.11C267.811 129.317 266.971 128.477 266.271 127.59H265.711C265.898 128.43 266.038 129.387 266.131 130.46C266.225 131.487 266.271 132.467 266.271 133.4V148.8H257.451V94.06H264.591L265.851 99.1H266.271C266.971 98.0267 267.811 97.07 268.791 96.23C269.818 95.3433 271.031 94.6433 272.431 94.13C273.878 93.6167 275.535 93.36 277.401 93.36ZM274.881 100.5C272.828 100.5 271.171 100.92 269.911 101.76C268.651 102.553 267.741 103.79 267.181 105.47C266.621 107.15 266.318 109.25 266.271 111.77V112.89C266.271 115.597 266.528 117.883 267.041 119.75C267.601 121.617 268.511 123.04 269.771 124.02C271.078 125 272.828 125.49 275.021 125.49C276.888 125.49 278.405 124.977 279.571 123.95C280.785 122.923 281.671 121.477 282.231 119.61C282.838 117.697 283.141 115.433 283.141 112.82C283.141 108.9 282.465 105.867 281.111 103.72C279.805 101.573 277.728 100.5 274.881 100.5ZM349.343 118.35C349.343 121.29 348.62 123.833 347.173 125.98C345.727 128.127 343.627 129.783 340.873 130.95C338.167 132.117 334.923 132.7 331.143 132.7C329.323 132.7 327.573 132.583 325.893 132.35C324.26 132.163 322.697 131.86 321.203 131.44C319.757 131.02 318.403 130.507 317.143 129.9V121.5C319.243 122.433 321.553 123.297 324.073 124.09C326.593 124.837 329.16 125.21 331.773 125.21C333.78 125.21 335.413 124.953 336.673 124.44C337.98 123.88 338.937 123.133 339.543 122.2C340.15 121.22 340.453 120.1 340.453 118.84C340.453 117.44 340.057 116.25 339.263 115.27C338.47 114.29 337.303 113.38 335.763 112.54C334.223 111.7 332.31 110.813 330.023 109.88C328.483 109.227 326.967 108.503 325.473 107.71C324.027 106.87 322.72 105.867 321.553 104.7C320.387 103.533 319.453 102.157 318.753 100.57C318.053 98.9833 317.703 97.1167 317.703 94.97C317.703 92.1233 318.38 89.6733 319.733 87.62C321.133 85.5667 323.07 84.0033 325.543 82.93C328.063 81.8567 330.98 81.32 334.293 81.32C336.953 81.32 339.45 81.6 341.783 82.16C344.117 82.72 346.427 83.5133 348.713 84.54L345.843 91.75C343.79 90.8633 341.807 90.1633 339.893 89.65C337.98 89.1367 336.02 88.88 334.013 88.88C332.427 88.88 331.073 89.1367 329.953 89.65C328.833 90.1167 327.993 90.7933 327.433 91.68C326.873 92.5667 326.593 93.5933 326.593 94.76C326.593 96.1133 326.943 97.2567 327.643 98.19C328.343 99.1233 329.417 100.01 330.863 100.85C332.357 101.643 334.27 102.553 336.603 103.58C339.31 104.747 341.597 105.96 343.463 107.22C345.33 108.48 346.777 109.997 347.803 111.77C348.83 113.543 349.343 115.737 349.343 118.35ZM372.64 125.63C373.76 125.63 374.833 125.537 375.86 125.35C376.886 125.117 377.843 124.86 378.73 124.58V131.16C377.796 131.58 376.583 131.93 375.09 132.21C373.596 132.537 372.033 132.7 370.4 132.7C368.253 132.7 366.293 132.35 364.52 131.65C362.793 130.903 361.393 129.643 360.32 127.87C359.293 126.097 358.78 123.623 358.78 120.45V100.71H353.67V96.86L359.27 93.78L362.07 85.73H367.6V94.06H378.38V100.71H367.6V120.38C367.6 122.153 368.066 123.483 369 124.37C369.933 125.21 371.146 125.63 372.64 125.63ZM420.257 112.96C420.257 116.133 419.837 118.933 418.997 121.36C418.157 123.787 416.944 125.863 415.357 127.59C413.817 129.27 411.904 130.553 409.617 131.44C407.377 132.28 404.88 132.7 402.127 132.7C399.514 132.7 397.11 132.28 394.917 131.44C392.724 130.553 390.81 129.27 389.177 127.59C387.59 125.863 386.354 123.787 385.467 121.36C384.58 118.933 384.137 116.133 384.137 112.96C384.137 108.76 384.86 105.213 386.307 102.32C387.754 99.38 389.83 97.1633 392.537 95.67C395.29 94.13 398.534 93.36 402.267 93.36C405.814 93.36 408.917 94.13 411.577 95.67C414.284 97.1633 416.407 99.38 417.947 102.32C419.487 105.213 420.257 108.76 420.257 112.96ZM393.167 112.96C393.167 115.62 393.47 117.907 394.077 119.82C394.73 121.687 395.71 123.11 397.017 124.09C398.37 125.07 400.097 125.56 402.197 125.56C404.344 125.56 406.07 125.07 407.377 124.09C408.73 123.11 409.71 121.687 410.317 119.82C410.924 117.907 411.227 115.62 411.227 112.96C411.227 110.253 410.9 107.99 410.247 106.17C409.64 104.303 408.66 102.903 407.307 101.97C406 100.99 404.297 100.5 402.197 100.5C399.024 100.5 396.714 101.573 395.267 103.72C393.867 105.867 393.167 108.947 393.167 112.96ZM449.255 93.36C449.815 93.36 450.468 93.3833 451.215 93.43C451.962 93.4767 452.592 93.57 453.105 93.71L452.335 101.9C451.915 101.807 451.355 101.737 450.655 101.69C450.002 101.597 449.418 101.55 448.905 101.55C447.505 101.55 446.152 101.783 444.845 102.25C443.585 102.67 442.442 103.323 441.415 104.21C440.435 105.05 439.642 106.147 439.035 107.5C438.475 108.853 438.195 110.463 438.195 112.33V132H429.375V94.06H436.165L437.425 100.64H437.845C438.592 99.2867 439.525 98.0733 440.645 97C441.765 95.88 443.048 94.9933 444.495 94.34C445.988 93.6867 447.575 93.36 449.255 93.36ZM474.03 93.36C477.436 93.36 480.353 94.06 482.78 95.46C485.253 96.8133 487.166 98.7733 488.52 101.34C489.873 103.86 490.55 106.94 490.55 110.58V115.06H465.49C465.583 118.513 466.54 121.197 468.36 123.11C470.18 124.977 472.7 125.91 475.92 125.91C478.393 125.91 480.586 125.677 482.5 125.21C484.46 124.697 486.466 123.973 488.52 123.04V130.11C486.653 130.997 484.716 131.65 482.71 132.07C480.703 132.49 478.3 132.7 475.5 132.7C471.813 132.7 468.523 132 465.63 130.6C462.783 129.153 460.543 126.983 458.91 124.09C457.323 121.197 456.53 117.603 456.53 113.31C456.53 108.97 457.253 105.33 458.7 102.39C460.193 99.4033 462.246 97.1633 464.86 95.67C467.473 94.13 470.53 93.36 474.03 93.36ZM474.03 99.87C471.696 99.87 469.783 100.64 468.29 102.18C466.843 103.673 465.98 105.913 465.7 108.9H482.01C482.01 107.127 481.706 105.563 481.1 104.21C480.54 102.857 479.676 101.807 478.51 101.06C477.343 100.267 475.85 99.87 474.03 99.87Z" fill="white"/>
<path d="M174.428 33.824C173.42 33.824 172.508 34.04 171.692 34.472C170.876 34.904 170.18 35.528 169.604 36.344C169.052 37.16 168.632 38.144 168.344 39.296C168.056 40.448 167.912 41.744 167.912 43.184C167.912 45.128 168.152 46.796 168.632 48.188C169.112 49.556 169.844 50.612 170.828 51.356C171.812 52.1 173.048 52.472 174.536 52.472C175.568 52.472 176.576 52.364 177.56 52.148C178.544 51.908 179.54 51.596 180.548 51.212V55.136C179.564 55.568 178.544 55.88 177.488 56.072C176.456 56.264 175.292 56.36 173.996 56.36C171.476 56.36 169.4 55.82 167.768 54.74C166.136 53.636 164.912 52.1 164.096 50.132C163.304 48.14 162.908 45.812 162.908 43.148C162.908 41.204 163.16 39.428 163.664 37.82C164.168 36.212 164.912 34.82 165.896 33.644C166.88 32.468 168.092 31.556 169.532 30.908C170.972 30.26 172.616 29.936 174.464 29.936C175.688 29.936 176.924 30.092 178.172 30.404C179.444 30.692 180.56 31.1 181.52 31.628L179.9 35.408C179.06 35 178.184 34.64 177.272 34.328C176.384 33.992 175.436 33.824 174.428 33.824ZM201.954 46.208C201.954 47.84 201.75 49.28 201.342 50.528C200.934 51.776 200.334 52.844 199.542 53.732C198.774 54.596 197.838 55.256 196.734 55.712C195.63 56.144 194.394 56.36 193.026 56.36C191.754 56.36 190.566 56.144 189.462 55.712C188.382 55.256 187.446 54.596 186.654 53.732C185.886 52.844 185.286 51.776 184.854 50.528C184.422 49.28 184.206 47.84 184.206 46.208C184.206 44.048 184.554 42.224 185.25 40.736C185.97 39.224 187.002 38.084 188.346 37.316C189.69 36.524 191.286 36.128 193.134 36.128C194.862 36.128 196.386 36.524 197.706 37.316C199.026 38.084 200.058 39.224 200.802 40.736C201.57 42.224 201.954 44.048 201.954 46.208ZM189.066 46.208C189.066 47.576 189.21 48.752 189.498 49.736C189.786 50.696 190.218 51.428 190.794 51.932C191.394 52.436 192.162 52.688 193.098 52.688C194.034 52.688 194.79 52.436 195.366 51.932C195.966 51.428 196.398 50.696 196.662 49.736C196.95 48.752 197.094 47.576 197.094 46.208C197.094 44.816 196.95 43.652 196.662 42.716C196.374 41.756 195.93 41.036 195.33 40.556C194.754 40.052 193.998 39.8 193.062 39.8C191.646 39.8 190.626 40.352 190.002 41.456C189.378 42.56 189.066 44.144 189.066 46.208ZM227.551 36.128C229.663 36.128 231.247 36.692 232.303 37.82C233.359 38.948 233.887 40.772 233.887 43.292V56H229.171V44.156C229.171 42.716 228.931 41.636 228.451 40.916C227.971 40.172 227.227 39.8 226.219 39.8C224.827 39.8 223.843 40.316 223.267 41.348C222.691 42.38 222.403 43.88 222.403 45.848V56H217.651V44.156C217.651 43.196 217.543 42.392 217.327 41.744C217.111 41.096 216.787 40.616 216.355 40.304C215.923 39.968 215.371 39.8 214.699 39.8C213.739 39.8 212.983 40.064 212.431 40.592C211.879 41.096 211.483 41.84 211.243 42.824C211.027 43.808 210.919 45.02 210.919 46.46V56H206.131V36.488H209.803L210.487 39.044H210.703C211.063 38.372 211.507 37.82 212.035 37.388C212.587 36.956 213.211 36.644 213.907 36.452C214.627 36.236 215.371 36.128 216.139 36.128C217.507 36.128 218.647 36.38 219.559 36.884C220.495 37.364 221.215 38.12 221.719 39.152H221.971C222.571 38.096 223.363 37.328 224.347 36.848C225.355 36.368 226.423 36.128 227.551 36.128ZM243.79 36.488V56H239.038V36.488H243.79ZM241.45 28.964C242.146 28.964 242.746 29.144 243.25 29.504C243.754 29.84 244.006 30.452 244.006 31.34C244.006 32.204 243.754 32.828 243.25 33.212C242.746 33.572 242.146 33.752 241.45 33.752C240.706 33.752 240.082 33.572 239.578 33.212C239.074 32.828 238.822 32.204 238.822 31.34C238.822 30.452 239.074 29.84 239.578 29.504C240.082 29.144 240.706 28.964 241.45 28.964ZM259.247 36.128C261.287 36.128 262.895 36.692 264.071 37.82C265.247 38.948 265.835 40.772 265.835 43.292V56H261.047V44.192C261.047 42.728 260.795 41.636 260.291 40.916C259.787 40.172 258.995 39.8 257.915 39.8C256.307 39.8 255.215 40.376 254.639 41.528C254.063 42.656 253.775 44.3 253.775 46.46V56H248.987V36.488H252.659L253.343 39.044H253.523C253.955 38.372 254.459 37.82 255.035 37.388C255.611 36.956 256.259 36.644 256.979 36.452C257.699 36.236 258.455 36.128 259.247 36.128ZM277.08 36.128C278.28 36.128 279.324 36.368 280.212 36.848C281.1 37.328 281.844 38.048 282.444 39.008H282.588L283.02 36.488H287.052V56.144C287.052 57.992 286.716 59.54 286.044 60.788C285.372 62.06 284.364 63.02 283.02 63.668C281.7 64.316 280.02 64.64 277.98 64.64C276.612 64.64 275.364 64.544 274.236 64.352C273.132 64.184 272.076 63.884 271.068 63.452V59.708C271.764 60.02 272.472 60.284 273.192 60.5C273.936 60.74 274.704 60.92 275.496 61.04C276.288 61.16 277.128 61.22 278.016 61.22C279.408 61.22 280.464 60.8 281.184 59.96C281.928 59.12 282.3 57.92 282.3 56.36V55.856C282.3 55.496 282.312 55.076 282.336 54.596C282.384 54.116 282.42 53.732 282.444 53.444H282.3C281.724 54.452 281.004 55.196 280.14 55.676C279.276 56.132 278.232 56.36 277.008 56.36C274.824 56.36 273.096 55.472 271.824 53.696C270.576 51.92 269.952 49.448 269.952 46.28C269.952 44.144 270.24 42.32 270.816 40.808C271.392 39.296 272.208 38.144 273.264 37.352C274.344 36.536 275.616 36.128 277.08 36.128ZM278.52 39.836C277.704 39.836 277.02 40.088 276.468 40.592C275.94 41.072 275.532 41.792 275.244 42.752C274.956 43.712 274.812 44.912 274.812 46.352C274.812 48.464 275.124 50.06 275.748 51.14C276.372 52.22 277.308 52.76 278.556 52.76C279.276 52.76 279.888 52.664 280.392 52.472C280.896 52.256 281.304 51.92 281.616 51.464C281.928 50.984 282.168 50.384 282.336 49.664C282.504 48.92 282.588 48.032 282.588 47V46.316C282.588 44.756 282.444 43.508 282.156 42.572C281.892 41.612 281.46 40.916 280.86 40.484C280.26 40.052 279.48 39.836 278.52 39.836ZM313.87 50.348C313.87 51.644 313.582 52.748 313.006 53.66C312.43 54.548 311.578 55.22 310.45 55.676C309.322 56.132 307.906 56.36 306.202 56.36C304.906 56.36 303.778 56.264 302.818 56.072C301.858 55.88 300.934 55.58 300.046 55.172V51.32C301.006 51.776 302.038 52.16 303.142 52.472C304.27 52.784 305.29 52.94 306.202 52.94C307.282 52.94 308.062 52.748 308.542 52.364C309.022 51.98 309.262 51.464 309.262 50.816C309.262 50.432 309.154 50.084 308.938 49.772C308.746 49.46 308.338 49.136 307.714 48.8C307.114 48.44 306.238 47.996 305.086 47.468C303.958 46.964 303.022 46.46 302.278 45.956C301.534 45.452 300.97 44.852 300.586 44.156C300.202 43.436 300.01 42.536 300.01 41.456C300.01 39.704 300.67 38.384 301.99 37.496C303.334 36.584 305.086 36.128 307.246 36.128C308.422 36.128 309.514 36.248 310.522 36.488C311.554 36.704 312.586 37.064 313.618 37.568L312.214 40.916C311.638 40.652 311.05 40.424 310.45 40.232C309.874 40.016 309.31 39.848 308.758 39.728C308.23 39.608 307.702 39.548 307.174 39.548C306.334 39.548 305.698 39.704 305.266 40.016C304.834 40.304 304.618 40.724 304.618 41.276C304.618 41.66 304.726 42.008 304.942 42.32C305.158 42.608 305.566 42.908 306.166 43.22C306.766 43.532 307.618 43.928 308.722 44.408C309.826 44.84 310.762 45.308 311.53 45.812C312.298 46.292 312.874 46.892 313.258 47.612C313.666 48.332 313.87 49.244 313.87 50.348ZM334.634 46.208C334.634 47.84 334.43 49.28 334.022 50.528C333.614 51.776 333.014 52.844 332.222 53.732C331.454 54.596 330.518 55.256 329.414 55.712C328.31 56.144 327.074 56.36 325.706 56.36C324.434 56.36 323.246 56.144 322.142 55.712C321.062 55.256 320.126 54.596 319.334 53.732C318.566 52.844 317.966 51.776 317.534 50.528C317.102 49.28 316.886 47.84 316.886 46.208C316.886 44.048 317.234 42.224 317.93 40.736C318.65 39.224 319.682 38.084 321.026 37.316C322.37 36.524 323.966 36.128 325.814 36.128C327.542 36.128 329.066 36.524 330.386 37.316C331.706 38.084 332.738 39.224 333.482 40.736C334.25 42.224 334.634 44.048 334.634 46.208ZM321.746 46.208C321.746 47.576 321.89 48.752 322.178 49.736C322.466 50.696 322.898 51.428 323.474 51.932C324.074 52.436 324.842 52.688 325.778 52.688C326.714 52.688 327.47 52.436 328.046 51.932C328.646 51.428 329.078 50.696 329.342 49.736C329.63 48.752 329.774 47.576 329.774 46.208C329.774 44.816 329.63 43.652 329.342 42.716C329.054 41.756 328.61 41.036 328.01 40.556C327.434 40.052 326.678 39.8 325.742 39.8C324.326 39.8 323.306 40.352 322.682 41.456C322.058 42.56 321.746 44.144 321.746 46.208ZM355.587 46.208C355.587 47.84 355.383 49.28 354.975 50.528C354.567 51.776 353.967 52.844 353.175 53.732C352.407 54.596 351.471 55.256 350.367 55.712C349.263 56.144 348.027 56.36 346.659 56.36C345.387 56.36 344.199 56.144 343.095 55.712C342.015 55.256 341.079 54.596 340.287 53.732C339.519 52.844 338.919 51.776 338.487 50.528C338.055 49.28 337.839 47.84 337.839 46.208C337.839 44.048 338.187 42.224 338.883 40.736C339.603 39.224 340.635 38.084 341.979 37.316C343.323 36.524 344.919 36.128 346.767 36.128C348.495 36.128 350.019 36.524 351.339 37.316C352.659 38.084 353.691 39.224 354.435 40.736C355.203 42.224 355.587 44.048 355.587 46.208ZM342.699 46.208C342.699 47.576 342.843 48.752 343.131 49.736C343.419 50.696 343.851 51.428 344.427 51.932C345.027 52.436 345.795 52.688 346.731 52.688C347.667 52.688 348.423 52.436 348.999 51.932C349.599 51.428 350.031 50.696 350.295 49.736C350.583 48.752 350.727 47.576 350.727 46.208C350.727 44.816 350.583 43.652 350.295 42.716C350.007 41.756 349.563 41.036 348.963 40.556C348.387 40.052 347.631 39.8 346.695 39.8C345.279 39.8 344.259 40.352 343.635 41.456C343.011 42.56 342.699 44.144 342.699 46.208ZM370.024 36.128C372.064 36.128 373.672 36.692 374.848 37.82C376.024 38.948 376.612 40.772 376.612 43.292V56H371.824V44.192C371.824 42.728 371.572 41.636 371.068 40.916C370.564 40.172 369.772 39.8 368.692 39.8C367.084 39.8 365.992 40.376 365.416 41.528C364.84 42.656 364.552 44.3 364.552 46.46V56H359.764V36.488H363.436L364.12 39.044H364.3C364.732 38.372 365.236 37.82 365.812 37.388C366.388 36.956 367.036 36.644 367.756 36.452C368.476 36.236 369.232 36.128 370.024 36.128Z" fill="white"/>
<g clip-path="url(#clip0_42_54)">
<path d="M114.455 70.4082C113.885 70.8492 103.821 76.5038 103.821 89.0772C103.821 103.62 116.627 108.765 117.01 108.893C116.951 109.206 114.975 115.939 110.258 122.799C106.052 128.836 101.658 134.863 94.9754 134.863C88.2924 134.863 86.5725 130.992 78.8575 130.992C71.3391 130.992 68.6658 134.99 62.5528 134.99C56.4398 134.99 52.1744 129.404 47.2703 122.544C41.5897 114.489 37 101.974 37 90.0964C37 71.0452 49.4226 60.9414 61.6486 60.9414C68.145 60.9414 73.5602 65.1946 77.6388 65.1946C81.5209 65.1946 87.5749 60.6866 94.9656 60.6866C97.7666 60.6866 107.83 60.9414 114.455 70.4082ZM91.457 52.6212C94.5135 49.005 96.6757 43.9874 96.6757 38.9698C96.6757 38.274 96.6167 37.5684 96.4889 37C91.516 37.1862 85.5995 40.3026 82.0319 44.4284C79.231 47.6036 76.6167 52.6212 76.6167 57.7074C76.6167 58.4718 76.7445 59.2362 76.8034 59.4812C77.1179 59.54 77.629 59.6086 78.1401 59.6086C82.602 59.6086 88.2138 56.6294 91.457 52.6212Z" fill="white"/>
</g>
<defs>
<clipPath id="clip0_42_54">
<rect width="80" height="98" fill="white" transform="translate(37 37)"/>
</clipPath>
</defs>
</svg>
